<svg width="28" height="26" viewBox="0 0 28 26" fill="none" xmlns="http://www.w3.org/2000/svg">
<path d="M12 22C12 23.106 13.1176 24 14.5 24C15.8825 24 17 23.106 17 22" stroke="#202021" stroke-miterlimit="10"/>
<path d="M6 20.7851H23C22.1258 19.0828 21.6658 17.1965 21.6658 15.2757V10.9509C21.6658 7.0402 18.4337 3.87715 14.5 4.00367C10.5663 3.87715 7.33424 7.0402 7.33424 10.9509V15.2872C7.33424 17.1965 6.87415 19.0828 6 20.7851Z" stroke="#202021" stroke-miterlimit="10"/>
<path d="M25.6666 4.72727C26.9553 4.72727 27.9999 3.66904 27.9999 2.36364C27.9999 1.05824 26.9553 0 25.6666 0C24.3779 0 23.3333 1.05824 23.3333 2.36364C23.3333 3.66904 24.3779 4.72727 25.6666 4.72727Z" fill="#3C7FFF"/>
</svg>
