<svg width="28" height="28" viewBox="0 0 28 28" fill="none" xmlns="http://www.w3.org/2000/svg">
<path d="M18.8943 20.1042L18.893 20.1052C17.3602 21.3606 15.7305 22.6954 14.4716 24.1834C14.3608 24.3139 14.1992 24.3891 14.0301 24.3891H13.9677C13.7988 24.3891 13.6365 24.3144 13.5253 24.1836C12.2793 22.7083 10.6655 21.3846 9.14599 20.1382L9.10456 20.1042C7.46469 18.7605 5.84957 17.4343 4.63753 15.9232C3.43508 14.424 2.65381 12.7713 2.65381 10.7792C2.65381 8.95893 3.28856 7.44276 4.35059 6.38268C5.41269 5.32255 6.9323 4.68848 8.7575 4.68848C10.7929 4.68848 12.5901 6.15694 13.6363 7.25202L13.9978 7.63045L14.3593 7.25202C15.4051 6.15735 17.2068 4.68848 19.2435 4.68848C21.0681 4.68848 22.5875 5.32252 23.6495 6.38266C24.7114 7.44274 25.3461 8.95893 25.3461 10.7792C25.3461 12.7718 24.5644 14.4247 23.3615 15.9239M18.8943 20.1042C20.5336 18.761 22.1491 17.4351 23.3615 15.9239M18.8943 20.1042L23.3615 15.9239" stroke="black"/>
</svg>
